<mxfile host="Electron" agent="Mozilla/5.0 (Windows NT 10.0; Win64; x64) AppleWebKit/537.36 (KHTML, like Gecko) draw.io/26.0.9 Chrome/128.0.6613.186 Electron/32.2.5 Safari/537.36" version="26.0.9" pages="2">
  <diagram id="FjtsThs56zWN0DVQA7s6" name="Level 0 DFD">
    <mxGraphModel dx="1050" dy="621" grid="1" gridSize="10" guides="1" tooltips="1" connect="1" arrows="1" fold="1" page="1" pageScale="1" pageWidth="850" pageHeight="1100" math="0" shadow="0">
      <root>
        <mxCell id="0" />
        <mxCell id="1" parent="0" />
        <mxCell id="CgjHCkLzN88NFPw9F2tU-1" style="edgeStyle=orthogonalEdgeStyle;rounded=0;orthogonalLoop=1;jettySize=auto;html=1;exitX=1;exitY=0.75;exitDx=0;exitDy=0;entryX=0;entryY=0.75;entryDx=0;entryDy=0;" parent="1" source="CgjHCkLzN88NFPw9F2tU-3" target="CgjHCkLzN88NFPw9F2tU-8" edge="1">
          <mxGeometry relative="1" as="geometry" />
        </mxCell>
        <mxCell id="CgjHCkLzN88NFPw9F2tU-2" value="Application" style="edgeLabel;html=1;align=center;verticalAlign=middle;resizable=0;points=[];" parent="CgjHCkLzN88NFPw9F2tU-1" vertex="1" connectable="0">
          <mxGeometry x="-0.004" relative="1" as="geometry">
            <mxPoint as="offset" />
          </mxGeometry>
        </mxCell>
        <mxCell id="CgjHCkLzN88NFPw9F2tU-3" value="Applicant" style="rounded=0;whiteSpace=wrap;html=1;fillColor=#fff2cc;strokeColor=#d6b656;" parent="1" vertex="1">
          <mxGeometry x="80" y="70" width="110" height="60" as="geometry" />
        </mxCell>
        <mxCell id="CgjHCkLzN88NFPw9F2tU-4" style="edgeStyle=orthogonalEdgeStyle;rounded=0;orthogonalLoop=1;jettySize=auto;html=1;exitX=0;exitY=0.25;exitDx=0;exitDy=0;entryX=1;entryY=0.25;entryDx=0;entryDy=0;" parent="1" source="CgjHCkLzN88NFPw9F2tU-8" target="CgjHCkLzN88NFPw9F2tU-3" edge="1">
          <mxGeometry relative="1" as="geometry" />
        </mxCell>
        <mxCell id="CgjHCkLzN88NFPw9F2tU-5" value="Applicant&amp;nbsp;&lt;div&gt;interview&lt;/div&gt;&lt;div&gt;schedule&lt;/div&gt;" style="edgeLabel;html=1;align=center;verticalAlign=middle;resizable=0;points=[];" parent="CgjHCkLzN88NFPw9F2tU-4" vertex="1" connectable="0">
          <mxGeometry x="-0.052" y="-2" relative="1" as="geometry">
            <mxPoint y="-1" as="offset" />
          </mxGeometry>
        </mxCell>
        <mxCell id="CgjHCkLzN88NFPw9F2tU-6" style="edgeStyle=orthogonalEdgeStyle;rounded=0;orthogonalLoop=1;jettySize=auto;html=1;exitX=1;exitY=0.25;exitDx=0;exitDy=0;entryX=0;entryY=0.25;entryDx=0;entryDy=0;" parent="1" source="CgjHCkLzN88NFPw9F2tU-8" target="CgjHCkLzN88NFPw9F2tU-12" edge="1">
          <mxGeometry relative="1" as="geometry" />
        </mxCell>
        <mxCell id="CgjHCkLzN88NFPw9F2tU-7" value="Manager&lt;div&gt;interview&lt;/div&gt;&lt;div&gt;schedule&lt;/div&gt;" style="edgeLabel;html=1;align=center;verticalAlign=middle;resizable=0;points=[];" parent="CgjHCkLzN88NFPw9F2tU-6" vertex="1" connectable="0">
          <mxGeometry x="-0.0923" y="7" relative="1" as="geometry">
            <mxPoint x="-1" as="offset" />
          </mxGeometry>
        </mxCell>
        <mxCell id="CgjHCkLzN88NFPw9F2tU-8" value="0" style="swimlane;whiteSpace=wrap;html=1;fillColor=#f8cecc;strokeColor=#b85450;" parent="1" vertex="1">
          <mxGeometry x="285" y="60" width="155" height="80" as="geometry" />
        </mxCell>
        <mxCell id="CgjHCkLzN88NFPw9F2tU-9" value="Recruitment system" style="text;html=1;align=center;verticalAlign=middle;resizable=0;points=[];autosize=1;strokeColor=none;fillColor=none;fontSize=15;" parent="CgjHCkLzN88NFPw9F2tU-8" vertex="1">
          <mxGeometry x="-5" y="40" width="160" height="30" as="geometry" />
        </mxCell>
        <mxCell id="CgjHCkLzN88NFPw9F2tU-10" style="edgeStyle=orthogonalEdgeStyle;rounded=0;orthogonalLoop=1;jettySize=auto;html=1;exitX=0;exitY=0.75;exitDx=0;exitDy=0;entryX=1;entryY=0.75;entryDx=0;entryDy=0;" parent="1" source="CgjHCkLzN88NFPw9F2tU-12" target="CgjHCkLzN88NFPw9F2tU-8" edge="1">
          <mxGeometry relative="1" as="geometry" />
        </mxCell>
        <mxCell id="CgjHCkLzN88NFPw9F2tU-11" value="Job&amp;nbsp;&lt;div&gt;description&lt;/div&gt;" style="edgeLabel;html=1;align=center;verticalAlign=middle;resizable=0;points=[];" parent="CgjHCkLzN88NFPw9F2tU-10" vertex="1" connectable="0">
          <mxGeometry x="-0.0369" y="-2" relative="1" as="geometry">
            <mxPoint y="1" as="offset" />
          </mxGeometry>
        </mxCell>
        <mxCell id="CgjHCkLzN88NFPw9F2tU-12" value="Manager" style="rounded=0;whiteSpace=wrap;html=1;fillColor=#fff2cc;strokeColor=#d6b656;" parent="1" vertex="1">
          <mxGeometry x="550" y="70" width="110" height="60" as="geometry" />
        </mxCell>
        <mxCell id="CgjHCkLzN88NFPw9F2tU-13" value="LEVEL 0 DFD FOR RECRUITMENT SYSTEM" style="text;html=1;align=center;verticalAlign=middle;resizable=0;points=[];autosize=1;strokeColor=none;fillColor=none;fontSize=18;" parent="1" vertex="1">
          <mxGeometry x="167.5" y="260" width="390" height="40" as="geometry" />
        </mxCell>
      </root>
    </mxGraphModel>
  </diagram>
  <diagram name="Level 1 DFD" id="sT_fJaoFiOa7PsWvJ9DD">
    <mxGraphModel dx="2100" dy="1242" grid="1" gridSize="10" guides="1" tooltips="1" connect="1" arrows="1" fold="1" page="1" pageScale="1" pageWidth="850" pageHeight="1100" background="none" math="0" shadow="0">
      <root>
        <mxCell id="0" />
        <mxCell id="1" parent="0" />
        <mxCell id="Dbt3-alVwjxvWuDsd3CI-30" style="edgeStyle=orthogonalEdgeStyle;rounded=0;orthogonalLoop=1;jettySize=auto;html=1;exitX=1;exitY=0.5;exitDx=0;exitDy=0;entryX=0;entryY=0.5;entryDx=0;entryDy=0;" edge="1" parent="1" source="Dbt3-alVwjxvWuDsd3CI-16" target="Dbt3-alVwjxvWuDsd3CI-29">
          <mxGeometry relative="1" as="geometry">
            <mxPoint x="500" y="363" as="targetPoint" />
          </mxGeometry>
        </mxCell>
        <mxCell id="Dbt3-alVwjxvWuDsd3CI-16" value="2.0" style="swimlane;whiteSpace=wrap;html=1;fillColor=#ffe6cc;strokeColor=#d79b00;" vertex="1" parent="1">
          <mxGeometry x="290" y="385" width="140" height="85" as="geometry" />
        </mxCell>
        <mxCell id="Dbt3-alVwjxvWuDsd3CI-17" value="&lt;div&gt;Create&lt;/div&gt;&lt;div&gt;Job&lt;/div&gt;&lt;div&gt;opening&lt;/div&gt;" style="text;html=1;align=center;verticalAlign=middle;resizable=0;points=[];autosize=1;strokeColor=none;fillColor=none;" vertex="1" parent="Dbt3-alVwjxvWuDsd3CI-16">
          <mxGeometry x="30" y="21.25" width="70" height="60" as="geometry" />
        </mxCell>
        <mxCell id="Dbt3-alVwjxvWuDsd3CI-21" style="edgeStyle=orthogonalEdgeStyle;rounded=0;orthogonalLoop=1;jettySize=auto;html=1;exitX=1;exitY=0.5;exitDx=0;exitDy=0;entryX=0;entryY=0.5;entryDx=0;entryDy=0;" edge="1" parent="1" source="Dbt3-alVwjxvWuDsd3CI-20" target="Dbt3-alVwjxvWuDsd3CI-16">
          <mxGeometry relative="1" as="geometry" />
        </mxCell>
        <mxCell id="Dbt3-alVwjxvWuDsd3CI-22" value="Job&lt;div&gt;description&lt;/div&gt;" style="edgeLabel;html=1;align=center;verticalAlign=middle;resizable=0;points=[];" vertex="1" connectable="0" parent="Dbt3-alVwjxvWuDsd3CI-21">
          <mxGeometry x="-0.0844" y="1" relative="1" as="geometry">
            <mxPoint x="-1" as="offset" />
          </mxGeometry>
        </mxCell>
        <mxCell id="Dbt3-alVwjxvWuDsd3CI-20" value="Manager" style="rounded=0;whiteSpace=wrap;html=1;fontSize=16;" vertex="1" parent="1">
          <mxGeometry x="50" y="392.5" width="140" height="77.5" as="geometry" />
        </mxCell>
        <mxCell id="Dbt3-alVwjxvWuDsd3CI-34" style="edgeStyle=orthogonalEdgeStyle;rounded=0;orthogonalLoop=1;jettySize=auto;html=1;exitX=1;exitY=0.5;exitDx=0;exitDy=0;entryX=0;entryY=0.5;entryDx=0;entryDy=0;strokeWidth=2;" edge="1" parent="1" source="Dbt3-alVwjxvWuDsd3CI-29" target="Dbt3-alVwjxvWuDsd3CI-31">
          <mxGeometry relative="1" as="geometry" />
        </mxCell>
        <mxCell id="Dbt3-alVwjxvWuDsd3CI-29" value="Job&lt;div&gt;database&lt;/div&gt;" style="shape=partialRectangle;whiteSpace=wrap;html=1;left=0;right=0;fillColor=none;" vertex="1" parent="1">
          <mxGeometry x="480" y="397.5" width="110" height="60" as="geometry" />
        </mxCell>
        <mxCell id="Dbt3-alVwjxvWuDsd3CI-67" style="edgeStyle=orthogonalEdgeStyle;rounded=0;orthogonalLoop=1;jettySize=auto;html=1;exitX=1;exitY=0.5;exitDx=0;exitDy=0;entryX=0;entryY=0.25;entryDx=0;entryDy=0;" edge="1" parent="1" source="Dbt3-alVwjxvWuDsd3CI-31" target="Dbt3-alVwjxvWuDsd3CI-65">
          <mxGeometry relative="1" as="geometry">
            <mxPoint x="980" y="500" as="targetPoint" />
          </mxGeometry>
        </mxCell>
        <mxCell id="Dbt3-alVwjxvWuDsd3CI-31" value="1.0" style="swimlane;whiteSpace=wrap;html=1;strokeWidth=2;fillColor=#f8cecc;strokeColor=#b85450;" vertex="1" parent="1">
          <mxGeometry x="660" y="457.5" width="190" height="130" as="geometry" />
        </mxCell>
        <mxCell id="Dbt3-alVwjxvWuDsd3CI-32" value="Recruitment system" style="text;html=1;align=center;verticalAlign=middle;resizable=0;points=[];autosize=1;strokeColor=none;fillColor=none;fontSize=18;" vertex="1" parent="Dbt3-alVwjxvWuDsd3CI-31">
          <mxGeometry x="5" y="50" width="180" height="40" as="geometry" />
        </mxCell>
        <mxCell id="Dbt3-alVwjxvWuDsd3CI-58" style="edgeStyle=orthogonalEdgeStyle;rounded=0;orthogonalLoop=1;jettySize=auto;html=1;exitX=0.5;exitY=1;exitDx=0;exitDy=0;entryX=0.5;entryY=0;entryDx=0;entryDy=0;" edge="1" parent="1" source="Dbt3-alVwjxvWuDsd3CI-35" target="Dbt3-alVwjxvWuDsd3CI-39">
          <mxGeometry relative="1" as="geometry" />
        </mxCell>
        <mxCell id="Dbt3-alVwjxvWuDsd3CI-35" value="3.0" style="swimlane;whiteSpace=wrap;html=1;fillColor=#ffe6cc;strokeColor=#d79b00;" vertex="1" parent="1">
          <mxGeometry x="675" y="256.25" width="140" height="85" as="geometry" />
        </mxCell>
        <mxCell id="Dbt3-alVwjxvWuDsd3CI-36" value="&lt;div&gt;Receive&lt;/div&gt;&lt;div&gt;Application&lt;/div&gt;" style="text;html=1;align=center;verticalAlign=middle;resizable=0;points=[];autosize=1;strokeColor=none;fillColor=none;" vertex="1" parent="Dbt3-alVwjxvWuDsd3CI-35">
          <mxGeometry x="30" y="32.5" width="80" height="40" as="geometry" />
        </mxCell>
        <mxCell id="Dbt3-alVwjxvWuDsd3CI-37" value="Applicant" style="rounded=0;whiteSpace=wrap;html=1;" vertex="1" parent="1">
          <mxGeometry x="690" y="160" width="120" height="60" as="geometry" />
        </mxCell>
        <mxCell id="Dbt3-alVwjxvWuDsd3CI-43" style="edgeStyle=orthogonalEdgeStyle;rounded=0;orthogonalLoop=1;jettySize=auto;html=1;entryX=1;entryY=0.5;entryDx=0;entryDy=0;exitX=0.5;exitY=1;exitDx=0;exitDy=0;" edge="1" parent="1" source="Dbt3-alVwjxvWuDsd3CI-65" target="Dbt3-alVwjxvWuDsd3CI-41">
          <mxGeometry relative="1" as="geometry">
            <mxPoint x="525" y="620" as="sourcePoint" />
          </mxGeometry>
        </mxCell>
        <mxCell id="Dbt3-alVwjxvWuDsd3CI-46" style="edgeStyle=orthogonalEdgeStyle;rounded=0;orthogonalLoop=1;jettySize=auto;html=1;exitX=0;exitY=0.5;exitDx=0;exitDy=0;entryX=0;entryY=1;entryDx=0;entryDy=0;" edge="1" parent="1" source="Dbt3-alVwjxvWuDsd3CI-63" target="Dbt3-alVwjxvWuDsd3CI-20">
          <mxGeometry relative="1" as="geometry" />
        </mxCell>
        <mxCell id="Dbt3-alVwjxvWuDsd3CI-47" value="Manager&lt;div&gt;Interview&amp;nbsp;&lt;/div&gt;&lt;div&gt;schedule&lt;/div&gt;" style="edgeLabel;html=1;align=center;verticalAlign=middle;resizable=0;points=[];" vertex="1" connectable="0" parent="Dbt3-alVwjxvWuDsd3CI-46">
          <mxGeometry x="0.4126" y="8" relative="1" as="geometry">
            <mxPoint as="offset" />
          </mxGeometry>
        </mxCell>
        <mxCell id="Dbt3-alVwjxvWuDsd3CI-64" style="edgeStyle=orthogonalEdgeStyle;rounded=0;orthogonalLoop=1;jettySize=auto;html=1;exitX=0.5;exitY=1;exitDx=0;exitDy=0;entryX=0.5;entryY=0;entryDx=0;entryDy=0;" edge="1" parent="1" source="Dbt3-alVwjxvWuDsd3CI-41" target="Dbt3-alVwjxvWuDsd3CI-63">
          <mxGeometry relative="1" as="geometry" />
        </mxCell>
        <mxCell id="Dbt3-alVwjxvWuDsd3CI-41" value="5.0" style="swimlane;whiteSpace=wrap;html=1;fillColor=#ffe6cc;strokeColor=#d79b00;" vertex="1" parent="1">
          <mxGeometry x="470" y="670" width="140" height="85" as="geometry" />
        </mxCell>
        <mxCell id="Dbt3-alVwjxvWuDsd3CI-42" value="&lt;div&gt;Schedule&amp;nbsp;&lt;/div&gt;&lt;div&gt;Interview&lt;/div&gt;" style="text;html=1;align=center;verticalAlign=middle;resizable=0;points=[];autosize=1;strokeColor=none;fillColor=none;" vertex="1" parent="Dbt3-alVwjxvWuDsd3CI-41">
          <mxGeometry x="30" y="35" width="80" height="40" as="geometry" />
        </mxCell>
        <mxCell id="Dbt3-alVwjxvWuDsd3CI-54" value="" style="edgeStyle=orthogonalEdgeStyle;rounded=0;orthogonalLoop=1;jettySize=auto;html=1;exitX=0.5;exitY=1;exitDx=0;exitDy=0;entryX=0.5;entryY=0;entryDx=0;entryDy=0;" edge="1" parent="1" source="Dbt3-alVwjxvWuDsd3CI-37" target="Dbt3-alVwjxvWuDsd3CI-35">
          <mxGeometry relative="1" as="geometry">
            <mxPoint x="740" y="250" as="sourcePoint" />
            <mxPoint x="736" y="463" as="targetPoint" />
            <Array as="points" />
          </mxGeometry>
        </mxCell>
        <mxCell id="Dbt3-alVwjxvWuDsd3CI-39" value="Applicant Data" style="shape=partialRectangle;whiteSpace=wrap;html=1;left=0;right=0;fillColor=none;" vertex="1" parent="1">
          <mxGeometry x="690" y="360" width="110" height="60" as="geometry" />
        </mxCell>
        <mxCell id="Dbt3-alVwjxvWuDsd3CI-59" style="edgeStyle=orthogonalEdgeStyle;rounded=0;orthogonalLoop=1;jettySize=auto;html=1;exitX=0.5;exitY=1;exitDx=0;exitDy=0;entryX=0.442;entryY=0.034;entryDx=0;entryDy=0;entryPerimeter=0;" edge="1" parent="1" source="Dbt3-alVwjxvWuDsd3CI-39" target="Dbt3-alVwjxvWuDsd3CI-31">
          <mxGeometry relative="1" as="geometry" />
        </mxCell>
        <mxCell id="Dbt3-alVwjxvWuDsd3CI-60" style="edgeStyle=orthogonalEdgeStyle;rounded=0;orthogonalLoop=1;jettySize=auto;html=1;exitX=1;exitY=0.5;exitDx=0;exitDy=0;entryX=1;entryY=0.5;entryDx=0;entryDy=0;" edge="1" parent="1" source="Dbt3-alVwjxvWuDsd3CI-63" target="Dbt3-alVwjxvWuDsd3CI-37">
          <mxGeometry relative="1" as="geometry">
            <mxPoint x="480" y="723" as="sourcePoint" />
            <mxPoint x="950" y="170" as="targetPoint" />
            <Array as="points">
              <mxPoint x="1150" y="810" />
              <mxPoint x="1150" y="190" />
            </Array>
          </mxGeometry>
        </mxCell>
        <mxCell id="Dbt3-alVwjxvWuDsd3CI-61" value="Applicant&lt;div&gt;interview&lt;/div&gt;&lt;div&gt;schedule&lt;/div&gt;" style="edgeLabel;html=1;align=center;verticalAlign=middle;resizable=0;points=[];" vertex="1" connectable="0" parent="Dbt3-alVwjxvWuDsd3CI-60">
          <mxGeometry x="0.5004" y="7" relative="1" as="geometry">
            <mxPoint x="7" y="279" as="offset" />
          </mxGeometry>
        </mxCell>
        <mxCell id="Dbt3-alVwjxvWuDsd3CI-63" value="Shortlisted&lt;div&gt;Applicant&lt;/div&gt;&lt;div&gt;Databse&lt;/div&gt;" style="shape=partialRectangle;whiteSpace=wrap;html=1;left=0;right=0;fillColor=none;" vertex="1" parent="1">
          <mxGeometry x="485" y="780" width="110" height="60" as="geometry" />
        </mxCell>
        <mxCell id="Dbt3-alVwjxvWuDsd3CI-65" value="4.0" style="swimlane;whiteSpace=wrap;html=1;fillColor=#ffe6cc;strokeColor=#d79b00;startSize=23;" vertex="1" parent="1">
          <mxGeometry x="930" y="570" width="140" height="75" as="geometry" />
        </mxCell>
        <mxCell id="Dbt3-alVwjxvWuDsd3CI-66" value="&lt;div&gt;Screen&lt;/div&gt;&lt;div&gt;Applications&lt;/div&gt;" style="text;html=1;align=center;verticalAlign=middle;resizable=0;points=[];autosize=1;strokeColor=none;fillColor=none;" vertex="1" parent="Dbt3-alVwjxvWuDsd3CI-65">
          <mxGeometry x="20" y="30" width="90" height="40" as="geometry" />
        </mxCell>
      </root>
    </mxGraphModel>
  </diagram>
</mxfile>
